<?xml version='1.0' encoding='ascii'?>
<svg xmlns="http://www.w3.org/2000/svg" version="1.1" width="1080" height="1080">
    <g id="ViewLayer_LineSet" xmlns:inkscape="http://www.inkscape.org/namespaces/inkscape" inkscape:groupmode="lineset" inkscape:label="ViewLayer_LineSet">
        <g xmlns:inkscape="http://www.inkscape.org/namespaces/inkscape" inkscape:groupmode="layer" id="strokes" inkscape:label="strokes">
            <path fill="none" stroke-width="3.0" stroke-linecap="butt" stroke-opacity="1.0" stroke="rgb(0, 0, 0)" stroke-linejoin="round" d=" M 508.126, 172.540 508.091, 171.819 508.126, 171.097 508.232, 170.382 508.408, 169.681 508.651, 169.001 508.960, 168.347 509.332, 167.728 509.762, 167.147 510.248, 166.612 510.783, 166.126 511.364, 165.696 511.983, 165.324 512.637, 165.015 513.317, 164.772 514.018, 164.596 514.733, 164.490 515.455, 164.455 516.176, 164.490 516.891, 164.596 517.592, 164.772 518.273, 165.015 518.926, 165.324 519.546, 165.696 520.126, 166.126 520.661, 166.612 521.147, 167.147 521.577, 167.728 521.949, 168.347 522.258, 169.001 522.501, 169.681 522.677, 170.382 522.783, 171.097 522.818, 171.819 522.783, 172.540 522.677, 173.255 522.501, 173.956 522.258, 174.637 521.949, 175.290 521.577, 175.910 521.147, 176.490 520.661, 177.025 520.126, 177.511 519.546, 177.941 518.926, 178.313 518.273, 178.622 517.592, 178.865 516.891, 179.041 516.176, 179.147 515.455, 179.182 514.733, 179.147 514.018, 179.041 513.317, 178.865 512.637, 178.622 511.983, 178.313 511.364, 177.941 510.783, 177.511 510.248, 177.025 509.762, 176.490 509.332, 175.910 508.960, 175.290 508.651, 174.637 508.408, 173.956 508.232, 173.255 508.126, 172.540 " />
            <path fill="none" stroke-width="3.0" stroke-linecap="butt" stroke-opacity="1.0" stroke="rgb(0, 0, 0)" stroke-linejoin="round" d=" M 228.132, 173.255 227.956, 173.956 227.713, 174.637 227.404, 175.290 227.032, 175.910 226.602, 176.490 226.116, 177.025 225.581, 177.511 225.000, 177.941 224.381, 178.313 223.727, 178.622 223.047, 178.865 222.346, 179.041 221.631, 179.147 220.909, 179.182 220.188, 179.147 219.473, 179.041 218.772, 178.865 218.091, 178.622 217.438, 178.313 216.818, 177.941 216.238, 177.511 215.703, 177.025 215.217, 176.490 214.787, 175.910 214.415, 175.290 214.106, 174.637 213.863, 173.956 213.687, 173.255 213.581, 172.540 213.546, 171.819 213.581, 171.097 213.687, 170.382 213.863, 169.681 214.106, 169.001 214.415, 168.347 214.787, 167.728 215.217, 167.147 215.703, 166.612 216.238, 166.126 216.818, 165.696 217.438, 165.324 218.091, 165.015 218.772, 164.772 219.473, 164.596 220.188, 164.490 220.909, 164.455 221.631, 164.490 222.346, 164.596 223.047, 164.772 223.727, 165.015 224.381, 165.324 225.000, 165.696 225.581, 166.126 226.116, 166.612 226.602, 167.147 227.032, 167.728 227.404, 168.347 227.713, 169.001 227.956, 169.681 228.132, 170.382 228.238, 171.097 228.273, 171.819 228.238, 172.540 228.132, 173.255 " />
            <path fill="none" stroke-width="3.0" stroke-linecap="butt" stroke-opacity="1.0" stroke="rgb(0, 0, 0)" stroke-linejoin="round" d=" M 220.909, 459.000 221.631, 459.036 222.346, 459.142 223.047, 459.317 223.727, 459.561 224.381, 459.870 225.000, 460.241 225.581, 460.672 226.116, 461.157 226.602, 461.692 227.032, 462.273 227.404, 462.893 227.713, 463.546 227.956, 464.226 228.132, 464.927 228.238, 465.642 228.273, 466.364 228.238, 467.085 228.132, 467.800 227.956, 468.501 227.713, 469.182 227.404, 469.835 227.032, 470.455 226.602, 471.035 226.116, 471.571 225.581, 472.056 225.000, 472.486 224.381, 472.858 223.727, 473.167 223.047, 473.410 222.346, 473.586 221.631, 473.692 220.909, 473.727 220.188, 473.692 219.473, 473.586 218.772, 473.410 218.091, 473.167 217.438, 472.858 216.818, 472.486 216.238, 472.056 215.703, 471.571 215.217, 471.035 214.787, 470.455 214.415, 469.835 214.106, 469.182 213.863, 468.501 213.687, 467.800 213.581, 467.085 213.546, 466.364 213.581, 465.642 213.687, 464.927 213.863, 464.226 214.106, 463.546 214.415, 462.893 214.787, 462.273 215.217, 461.692 215.703, 461.157 216.238, 460.672 216.818, 460.241 217.438, 459.870 218.091, 459.561 218.772, 459.317 219.473, 459.142 220.188, 459.036 220.909, 459.000 " />
            <path fill="none" stroke-width="3.0" stroke-linecap="butt" stroke-opacity="1.0" stroke="rgb(0, 0, 0)" stroke-linejoin="round" d=" M 778.126, 858.369 778.232, 857.654 778.408, 856.953 778.651, 856.273 778.960, 855.619 779.332, 855.000 779.762, 854.419 780.247, 853.884 780.783, 853.398 781.363, 852.968 781.983, 852.596 782.636, 852.287 783.317, 852.044 784.018, 851.868 784.733, 851.762 785.454, 851.727 786.176, 851.762 786.891, 851.868 787.592, 852.044 788.272, 852.287 788.926, 852.596 789.545, 852.968 790.126, 853.398 790.661, 853.884 791.146, 854.419 791.577, 855.000 791.948, 855.619 792.257, 856.273 792.501, 856.953 792.676, 857.654 792.783, 858.369 792.818, 859.091 792.783, 859.812 792.676, 860.527 792.501, 861.228 792.257, 861.909 791.948, 862.562 791.577, 863.182 791.146, 863.762 790.661, 864.297 790.126, 864.783 789.545, 865.213 788.926, 865.585 788.272, 865.894 787.592, 866.137 786.891, 866.313 786.176, 866.419 785.454, 866.454 784.733, 866.419 784.018, 866.313 783.317, 866.137 782.636, 865.894 781.983, 865.585 781.363, 865.213 780.783, 864.783 780.444, 864.475 780.247, 864.297 779.762, 863.762 779.332, 863.182 778.960, 862.562 778.651, 861.909 778.408, 861.228 778.232, 860.527 778.126, 859.812 778.091, 859.091 778.126, 858.369 " />
            <path fill="none" stroke-width="3.0" stroke-linecap="butt" stroke-opacity="1.0" stroke="rgb(0, 0, 0)" stroke-linejoin="round" d=" M 766.601, 854.419 767.032, 855.000 767.403, 855.619 767.712, 856.273 767.955, 856.953 768.131, 857.654 768.237, 858.369 768.273, 859.091 768.237, 859.812 768.131, 860.527 767.955, 861.228 767.712, 861.909 767.403, 862.562 767.032, 863.182 766.601, 863.762 766.116, 864.297 765.580, 864.783 765.000, 865.213 764.380, 865.585 763.727, 865.894 763.046, 866.137 762.345, 866.313 761.631, 866.419 760.909, 866.454 760.187, 866.419 759.472, 866.313 758.771, 866.137 758.091, 865.894 757.438, 865.585 756.818, 865.213 756.237, 864.783 755.702, 864.297 755.217, 863.762 754.786, 863.182 754.415, 862.562 754.106, 861.909 753.862, 861.228 753.687, 860.527 753.581, 859.812 753.545, 859.091 753.581, 858.369 753.687, 857.654 753.862, 856.953 754.106, 856.273 754.415, 855.619 754.786, 855.000 755.217, 854.419 755.702, 853.884 756.237, 853.398 756.818, 852.968 757.438, 852.596 758.091, 852.287 758.771, 852.044 759.472, 851.868 760.187, 851.762 760.909, 851.727 761.631, 851.762 762.345, 851.868 763.046, 852.044 763.727, 852.287 764.380, 852.596 765.000, 852.968 765.580, 853.398 766.116, 853.884 766.601, 854.419 " />
            <path fill="none" stroke-width="3.0" stroke-linecap="butt" stroke-opacity="1.0" stroke="rgb(0, 0, 0)" stroke-linejoin="round" d=" M 514.733, 459.036 515.455, 459.000 516.176, 459.036 516.891, 459.142 517.592, 459.317 518.273, 459.561 518.926, 459.870 519.546, 460.241 520.165, 460.701 520.661, 461.157 521.147, 461.692 521.577, 462.273 521.949, 462.893 522.258, 463.546 522.501, 464.226 522.677, 464.927 522.783, 465.642 522.818, 466.364 522.783, 467.085 522.677, 467.800 522.501, 468.501 522.258, 469.182 521.949, 469.835 521.577, 470.455 521.147, 471.035 520.661, 471.571 520.126, 472.056 519.546, 472.486 518.926, 472.858 518.273, 473.167 517.592, 473.410 516.891, 473.586 516.176, 473.692 515.455, 473.727 514.733, 473.692 514.018, 473.586 513.317, 473.410 512.637, 473.167 511.983, 472.858 511.364, 472.486 510.783, 472.056 510.248, 471.571 509.762, 471.035 509.332, 470.455 508.960, 469.835 508.651, 469.182 508.408, 468.501 508.232, 467.800 508.126, 467.085 508.091, 466.364 508.126, 465.642 508.232, 464.927 508.408, 464.226 508.651, 463.546 508.960, 462.893 509.332, 462.273 509.762, 461.692 510.248, 461.157 510.783, 460.672 511.364, 460.241 511.983, 459.870 512.637, 459.561 513.317, 459.317 514.018, 459.142 514.733, 459.036 " />
            <path fill="none" stroke-width="3.0" stroke-linecap="butt" stroke-opacity="1.0" stroke="rgb(0, 0, 0)" stroke-linejoin="round" d=" M 778.091, 662.727 778.096, 662.624 778.126, 662.005 778.232, 661.291 778.408, 660.590 778.651, 659.909 778.960, 659.256 779.332, 658.636 779.762, 658.056 780.247, 657.520 780.783, 657.035 781.363, 656.605 781.983, 656.233 782.636, 655.924 783.317, 655.681 784.018, 655.505 784.733, 655.399 785.454, 655.364 786.176, 655.399 786.891, 655.505 787.592, 655.681 788.272, 655.924 788.926, 656.233 789.545, 656.605 790.126, 657.035 790.661, 657.520 791.146, 658.056 791.577, 658.636 791.948, 659.256 792.257, 659.909 792.501, 660.590 792.676, 661.291 792.783, 662.005 792.818, 662.727 792.783, 663.449 792.676, 664.164 792.501, 664.865 792.257, 665.545 791.948, 666.198 791.577, 666.818 791.146, 667.399 790.661, 667.934 790.126, 668.419 789.545, 668.850 788.926, 669.221 788.272, 669.530 787.592, 669.774 786.891, 669.949 786.176, 670.055 785.454, 670.091 784.733, 670.055 784.018, 669.949 783.317, 669.774 782.636, 669.530 781.983, 669.221 781.363, 668.850 780.783, 668.419 780.247, 667.934 779.762, 667.399 779.332, 666.818 778.960, 666.198 778.651, 665.545 778.408, 664.865 778.232, 664.164 778.126, 663.449 778.091, 662.727 " />
            <path fill="none" stroke-width="3.0" stroke-linecap="butt" stroke-opacity="1.0" stroke="rgb(0, 0, 0)" stroke-linejoin="round" d=" M 768.237, 662.005 768.273, 662.727 768.237, 663.449 768.131, 664.164 767.955, 664.865 767.712, 665.545 767.403, 666.198 767.032, 666.818 766.601, 667.399 766.116, 667.934 765.580, 668.419 765.000, 668.850 764.380, 669.221 763.727, 669.530 763.046, 669.774 762.345, 669.949 761.631, 670.055 760.909, 670.091 760.187, 670.055 759.472, 669.949 758.771, 669.774 758.091, 669.530 757.438, 669.221 756.818, 668.850 756.237, 668.419 755.702, 667.934 755.217, 667.399 754.786, 666.818 754.415, 666.198 754.106, 665.545 753.862, 664.865 753.687, 664.164 753.581, 663.449 753.545, 662.727 753.581, 662.005 753.687, 661.291 753.862, 660.590 754.106, 659.909 754.415, 659.256 754.786, 658.636 755.217, 658.056 755.702, 657.520 756.237, 657.035 756.818, 656.605 757.438, 656.233 758.091, 655.924 758.771, 655.681 759.472, 655.505 760.187, 655.399 760.909, 655.364 761.631, 655.399 762.345, 655.505 763.046, 655.681 763.727, 655.924 764.380, 656.233 765.000, 656.605 765.580, 657.035 766.116, 657.520 766.601, 658.056 767.032, 658.636 767.403, 659.256 767.712, 659.909 767.955, 660.590 768.131, 661.291 768.237, 662.005 " />
            <path fill="none" stroke-width="3.0" stroke-linecap="butt" stroke-opacity="1.0" stroke="rgb(0, 0, 0)" stroke-linejoin="round" d=" M 810.721, 851.762 811.436, 851.868 812.137, 852.044 812.818, 852.287 813.471, 852.596 814.091, 852.968 814.671, 853.398 815.207, 853.884 815.692, 854.419 816.122, 855.000 816.494, 855.619 816.803, 856.273 817.046, 856.953 817.222, 857.654 817.326, 858.320 817.363, 859.091 817.328, 859.812 817.222, 860.527 817.046, 861.228 816.803, 861.909 816.494, 862.562 816.122, 863.182 815.692, 863.762 815.207, 864.297 814.671, 864.783 814.091, 865.213 813.471, 865.585 812.818, 865.894 812.137, 866.137 811.436, 866.313 810.721, 866.419 810.000, 866.454 809.278, 866.419 808.563, 866.313 807.862, 866.137 807.182, 865.894 806.529, 865.585 805.909, 865.213 805.328, 864.783 804.793, 864.297 804.308, 863.762 803.877, 863.182 803.506, 862.562 803.197, 861.909 802.953, 861.228 802.778, 860.527 802.672, 859.812 802.636, 859.091 802.672, 858.369 802.778, 857.654 802.803, 857.554 802.953, 856.953 803.197, 856.273 803.506, 855.619 803.877, 855.000 804.308, 854.419 804.793, 853.884 805.328, 853.398 805.909, 852.968 806.529, 852.596 807.182, 852.287 807.862, 852.044 808.563, 851.868 809.278, 851.762 810.000, 851.727 810.721, 851.762 " />
            <path fill="none" stroke-width="3.0" stroke-linecap="butt" stroke-opacity="1.0" stroke="rgb(0, 0, 0)" stroke-linejoin="round" d=" M 514.733, 787.944 515.455, 787.909 516.176, 787.944 516.891, 788.050 517.592, 788.226 518.273, 788.469 518.926, 788.778 519.546, 789.150 520.126, 789.580 520.661, 790.066 521.147, 790.601 521.577, 791.181 521.949, 791.801 522.258, 792.455 522.501, 793.135 522.677, 793.836 522.783, 794.551 522.818, 795.272 522.783, 795.994 522.677, 796.709 522.501, 797.410 522.258, 798.090 521.949, 798.744 521.577, 799.363 521.147, 799.944 520.661, 800.479 520.126, 800.965 519.546, 801.395 518.926, 801.767 518.273, 802.076 517.592, 802.319 516.891, 802.495 516.176, 802.601 515.455, 802.636 514.733, 802.601 514.018, 802.495 513.317, 802.319 512.637, 802.076 511.983, 801.767 511.364, 801.395 510.783, 800.965 510.248, 800.479 509.762, 799.944 509.332, 799.363 508.960, 798.744 508.651, 798.090 508.408, 797.410 508.232, 796.709 508.126, 795.994 508.091, 795.272 508.126, 794.551 508.232, 793.836 508.408, 793.135 508.651, 792.455 508.960, 791.801 509.332, 791.181 509.762, 790.601 510.248, 790.066 510.783, 789.580 511.364, 789.150 511.983, 788.778 512.637, 788.469 513.317, 788.226 514.018, 788.050 514.733, 787.944 " />
            <path fill="none" stroke-width="3.0" stroke-linecap="butt" stroke-opacity="1.0" stroke="rgb(0, 0, 0)" stroke-linejoin="round" d=" M 228.238, 795.994 228.132, 796.709 227.956, 797.410 227.713, 798.090 227.404, 798.744 227.032, 799.363 226.602, 799.944 226.116, 800.479 225.581, 800.965 225.000, 801.395 224.381, 801.767 223.727, 802.076 223.047, 802.319 222.346, 802.495 221.631, 802.601 220.909, 802.636 220.188, 802.601 219.473, 802.495 218.772, 802.319 218.091, 802.076 217.438, 801.767 216.818, 801.395 216.238, 800.965 215.703, 800.479 215.217, 799.944 214.787, 799.363 214.415, 798.744 214.106, 798.090 213.863, 797.410 213.687, 796.709 213.581, 795.994 213.546, 795.272 213.581, 794.551 213.687, 793.836 213.863, 793.135 214.106, 792.455 214.415, 791.801 214.787, 791.181 215.217, 790.601 215.703, 790.066 216.238, 789.580 216.818, 789.150 217.438, 788.778 218.091, 788.469 218.772, 788.226 219.473, 788.050 220.188, 787.944 220.909, 787.909 221.631, 787.944 222.346, 788.050 223.047, 788.226 223.727, 788.469 224.381, 788.778 225.000, 789.150 225.581, 789.580 226.116, 790.066 226.602, 790.601 227.032, 791.181 227.404, 791.801 227.713, 792.455 227.956, 793.135 228.132, 793.836 228.238, 794.551 228.273, 795.272 228.238, 795.994 " />
            <path fill="none" stroke-width="3.0" stroke-linecap="butt" stroke-opacity="1.0" stroke="rgb(0, 0, 0)" stroke-linejoin="round" d=" M 240.805, 955.626 250.756, 956.606 257.525, 957.272 267.525, 957.272 277.525, 957.272 287.525, 957.272 297.525, 957.272 307.525, 957.272 317.525, 957.272 327.525, 957.272 337.525, 957.272 347.525, 957.272 357.525, 957.272 367.525, 957.272 377.525, 957.272 387.525, 957.272 397.525, 957.272 407.525, 957.272 417.525, 957.272 427.525, 957.272 437.525, 957.272 447.525, 957.272 457.525, 957.272 467.525, 957.272 477.525, 957.272 487.525, 957.272 497.525, 957.272 507.525, 957.272 517.525, 957.272 527.525, 957.272 537.525, 957.272 547.525, 957.272 557.525, 957.272 567.525, 957.272 577.525, 957.272 587.525, 957.272 597.525, 957.272 607.525, 957.272 617.525, 957.272 627.525, 957.272 637.525, 957.272 647.525, 957.272 657.525, 957.272 667.525, 957.272 677.525, 957.272 687.525, 957.272 697.525, 957.272 707.525, 957.272 717.525, 957.272 727.525, 957.272 737.525, 957.272 747.525, 957.272 757.525, 957.272 767.525, 957.272 777.525, 957.272 787.525, 957.272 797.525, 957.272 807.525, 957.272 822.475, 957.272 832.427, 956.292 839.195, 955.626 848.765, 952.723 855.273, 950.748 864.093, 946.034 870.091, 942.828 877.821, 936.484 883.079, 932.169 889.422, 924.439 893.737, 919.182 898.451, 910.363 901.657, 904.364 904.560, 894.795 906.535, 888.286 907.515, 878.334 908.181, 871.566 908.181, 861.566 908.181, 851.566 908.181, 841.566 908.181, 831.566 908.181, 821.566 908.181, 811.566 908.181, 801.566 908.181, 791.566 908.181, 781.566 908.181, 771.566 908.181, 761.566 908.181, 751.566 908.181, 741.566 908.181, 731.566 908.181, 721.566 908.181, 711.566 908.181, 701.566 908.181, 691.566 908.181, 681.566 908.181, 671.566 908.181, 661.566 908.181, 651.566 908.181, 641.566 908.181, 631.566 908.181, 621.566 908.181, 611.566 908.181, 601.566 908.181, 591.566 908.181, 581.566 908.181, 571.566 908.181, 561.566 908.181, 551.566 908.181, 541.566 908.181, 531.566 908.181, 521.566 908.181, 511.566 908.181, 501.566 908.181, 491.566 908.181, 481.566 908.181, 471.566 908.181, 461.566 908.181, 451.566 908.181, 441.566 908.181, 431.566 908.181, 421.566 908.181, 411.566 908.181, 401.566 908.181, 391.566 908.181, 381.566 908.181, 371.566 908.181, 361.566 908.181, 351.566 908.181, 341.566 908.181, 331.566 908.181, 321.566 908.181, 311.566 908.181, 301.566 908.181, 291.566 908.181, 281.566 908.181, 271.566 908.181, 261.566 908.181, 251.566 908.181, 241.566 908.181, 231.566 908.181, 221.566 908.181, 208.434 907.201, 198.482 906.535, 191.714 903.632, 182.144 901.657, 175.636 896.943, 166.817 893.737, 160.818 887.393, 153.088 883.079, 147.831 875.348, 141.487 870.091, 137.172 861.272, 132.458 855.273, 129.252 845.704, 126.349 839.195, 124.374 829.244, 123.394 822.475, 122.728 812.475, 122.728 802.475, 122.728 792.475, 122.728 782.475, 122.728 772.475, 122.728 762.475, 122.728 752.475, 122.728 742.475, 122.728 732.475, 122.728 722.475, 122.728 712.475, 122.728 702.475, 122.728 692.475, 122.728 682.475, 122.728 672.475, 122.728 662.475, 122.728 652.475, 122.728 642.475, 122.728 632.475, 122.728 622.475, 122.728 612.475, 122.728 602.475, 122.728 592.475, 122.728 582.475, 122.728 572.475, 122.728 562.475, 122.728 552.475, 122.728 542.475, 122.728 532.475, 122.728 522.475, 122.728 512.475, 122.728 502.475, 122.728 492.475, 122.728 482.475, 122.728 472.475, 122.728 462.475, 122.728 452.475, 122.728 442.475, 122.728 432.475, 122.728 422.475, 122.728 412.475, 122.728 402.475, 122.728 392.475, 122.728 382.475, 122.728 372.475, 122.728 362.475, 122.728 352.475, 122.728 342.475, 122.728 332.475, 122.728 322.475, 122.728 312.475, 122.728 302.475, 122.728 292.475, 122.728 282.475, 122.728 272.475, 122.728 257.525, 122.728 247.573, 123.708 240.805, 124.374 231.235, 127.277 224.727, 129.252 215.907, 133.966 209.909, 137.172 202.179, 143.516 196.921, 147.831 190.577, 155.561 186.263, 160.818 181.549, 169.638 178.343, 175.636 175.440, 185.205 173.465, 191.714 172.485, 201.666 171.819, 208.434 171.819, 218.434 171.819, 228.434 171.819, 238.434 171.819, 248.434 171.819, 258.434 171.819, 268.434 171.819, 278.434 171.819, 288.434 171.819, 298.434 171.819, 308.434 171.819, 318.434 171.819, 328.434 171.819, 338.434 171.819, 348.434 171.819, 358.434 171.819, 368.434 171.819, 378.434 171.819, 388.434 171.819, 398.434 171.819, 408.434 171.819, 418.434 171.819, 428.434 171.819, 438.434 171.819, 448.434 171.819, 458.434 171.819, 468.434 171.819, 478.434 171.819, 488.434 171.819, 498.434 171.819, 508.434 171.819, 518.434 171.819, 528.434 171.819, 538.434 171.819, 548.434 171.819, 558.434 171.819, 568.434 171.819, 578.434 171.819, 588.434 171.819, 598.434 171.819, 608.434 171.819, 618.434 171.819, 628.434 171.819, 638.434 171.819, 648.434 171.819, 658.434 171.819, 668.434 171.819, 678.434 171.819, 688.434 171.819, 698.434 171.819, 708.434 171.819, 718.434 171.819, 728.434 171.819, 738.434 171.819, 748.434 171.819, 758.434 171.819, 768.434 171.819, 778.434 171.819, 788.434 171.819, 798.434 171.819, 808.434 171.819, 818.434 171.819, 828.434 171.819, 838.434 171.819, 848.434 171.819, 858.434 171.819, 871.566 172.799, 881.518 173.465, 888.286 176.368, 897.856 178.343, 904.364 183.057, 913.183 186.263, 919.182 192.607, 926.912 196.921, 932.169 204.652, 938.513 209.909, 942.828 218.728, 947.542 224.727, 950.748 234.296, 953.651 240.805, 955.626 " />
            <path fill="none" stroke-width="3.0" stroke-linecap="butt" stroke-opacity="1.0" stroke="rgb(0, 0, 0)" stroke-linejoin="round" d=" M 802.672, 662.005 802.778, 661.291 802.953, 660.590 803.197, 659.909 803.506, 659.256 803.877, 658.636 804.308, 658.056 804.793, 657.520 805.328, 657.035 805.909, 656.605 806.529, 656.233 807.182, 655.924 807.862, 655.681 808.563, 655.505 809.278, 655.399 810.000, 655.364 810.721, 655.399 811.436, 655.505 812.137, 655.681 812.818, 655.924 813.471, 656.233 814.091, 656.605 814.671, 657.035 815.207, 657.520 815.692, 658.056 816.122, 658.636 816.494, 659.256 816.803, 659.909 817.046, 660.590 817.222, 661.291 817.328, 662.005 817.363, 662.727 817.328, 663.449 817.222, 664.164 817.046, 664.865 816.803, 665.545 816.494, 666.198 816.122, 666.818 815.692, 667.399 815.207, 667.934 814.671, 668.419 814.091, 668.850 813.471, 669.221 812.818, 669.530 812.137, 669.774 811.436, 669.949 810.721, 670.055 810.000, 670.091 809.278, 670.055 808.563, 669.949 807.862, 669.774 807.182, 669.530 806.529, 669.221 805.909, 668.850 805.328, 668.419 804.793, 667.934 804.308, 667.399 803.877, 666.818 803.506, 666.198 803.197, 665.545 802.953, 664.865 802.778, 664.164 802.672, 663.449 802.636, 662.727 802.672, 662.005 " />
        </g>
    </g>
</svg>
